<svg viewBox="0 0 448 448" style="enable-background:new 0 0 448 448;" xml:space="preserve">
	<path d="M352,149.333h-21.333v-42.667C330.667,47.787,282.88,0,224,0S117.333,47.787,117.333,106.667v42.667H96    c-23.573,0-42.667,19.093-42.667,42.667v213.333C53.333,428.907,72.427,448,96,448h256c23.573,0,42.667-19.093,42.667-42.667V192    C394.667,168.427,375.573,149.333,352,149.333z M224,341.333c-23.573,0-42.667-19.093-42.667-42.667    C181.333,275.093,200.427,256,224,256s42.667,19.093,42.667,42.667C266.667,322.24,247.573,341.333,224,341.333z M290.133,149.333    H157.867v-42.667c0-36.48,29.653-66.133,66.133-66.133s66.133,29.653,66.133,66.133V149.333z"/>
</svg>
